# xmcd
#
# Track frame offsets:
#	150
#	13021
#	24557
#	34049
#	48260
#	59810
#	71884
#	82513
#	94222
#	110151
#	119267
#	133939
#
# Disc length: 1902 seconds
#
# Revision: 1
# Processed by: cddbd v1.5.2PL0 Copyright (c) Steve Scherf et al.
# Submitted via: audiograbber 1.83.01
#
DISCID=a6076c0c
DTITLE=Ronny - Oh my Darling Caroline
DYEAR=2013
DGENRE=Country
TTITLE0=Oh my Darling Caroline
TTITLE1=Ein Stern geht auf
TTITLE2=O Susanna
TTITLE3=Und der Regen der rinnt
TTITLE4=Old Charly
TTITLE5=Mexico Moon
TTITLE6=Michael
TTITLE7=Anna-Maria
TTITLE8=Lu La Lu
TTITLE9=Geisterreiter
TTITLE10=Swanee River
TTITLE11=Goodnight Irene
EXTD=
EXTT0=
EXTT1=
EXTT2=
EXTT3=
EXTT4=
EXTT5=
EXTT6=
EXTT7=
EXTT8=
EXTT9=
EXTT10=
EXTT11=
PLAYORDER=
